<svg width="294" height="96" viewBox="0 0 294 96" fill="none" xmlns="http://www.w3.org/2000/svg">
<g filter="url(#filter0_d_223_48)">
<mask id="path-1-outside-1_223_48" maskUnits="userSpaceOnUse" x="4" y="0" width="286" height="88" fill="black">
<rect fill="white" x="4" width="286" height="88"/>
<path fill-rule="evenodd" clip-rule="evenodd" d="M247.431 2L223.786 26.121H241.698L246.489 39.7113L258.05 27.9181L247.431 2ZM212.099 57.208L202.789 30.7943H238.415L242.861 43.4079L229.33 57.208H212.099ZM261.755 30.7943L248.211 44.6043L252.655 57.208H288.296L278.986 30.7943H261.755ZM233.035 60.0819L243.654 86L267.304 61.879H249.372L244.587 48.301L233.035 60.0819ZM5.45312 25.957C5.15104 26.6556 5 27.4014 5 28.1943V57.1943C5 57.9873 5.15104 58.7425 5.45312 59.46C5.75521 60.1585 6.17057 60.7721 6.69922 61.3008C7.22786 61.8294 7.84147 62.2448 8.54004 62.5469C9.25749 62.849 10.0127 63 10.8057 63H32.8389C33.6318 63 34.3776 62.849 35.0762 62.5469C35.7936 62.2448 36.4167 61.8294 36.9453 61.3008C37.474 60.7721 37.8893 60.1585 38.1914 59.46C38.4935 58.7425 38.6445 57.9873 38.6445 57.1943V51.9834H32.8389V57.1943H10.8057V28.1943H32.8389V33.4336H38.6445V28.1943C38.6445 27.4014 38.4935 26.6556 38.1914 25.957C37.8893 25.2396 37.474 24.626 36.9453 24.1162C36.4167 23.5876 35.7936 23.1722 35.0762 22.8701C34.3776 22.5492 33.6318 22.3887 32.8389 22.3887H10.8057C10.0127 22.3887 9.25749 22.5492 8.54004 22.8701C7.84147 23.1722 7.22786 23.5876 6.69922 24.1162C6.17057 24.626 5.75521 25.2396 5.45312 25.957ZM53.9249 57.1943V22.3887H48.1192V63H74.7969V57.1943H53.9249ZM115.594 63L99.9327 22.3887H94.1271L78.4659 63H84.2716L87.8683 53.6543H106.192L109.788 63H115.594ZM103.954 47.8486H90.0773L97.0441 29.9502L103.954 47.8486ZM128.552 63V22.3887H122.746V63H128.552ZM144.993 33.2354L160.145 63H161.872L177.024 33.2354V63H182.801V22.3887H176.486L160.994 52.9746L145.531 22.3887H139.188V63H144.993V33.2354Z"/>
</mask>
<path fill-rule="evenodd" clip-rule="evenodd" d="M247.431 2L223.786 26.121H241.698L246.489 39.7113L258.05 27.9181L247.431 2ZM212.099 57.208L202.789 30.7943H238.415L242.861 43.4079L229.33 57.208H212.099ZM261.755 30.7943L248.211 44.6043L252.655 57.208H288.296L278.986 30.7943H261.755ZM233.035 60.0819L243.654 86L267.304 61.879H249.372L244.587 48.301L233.035 60.0819ZM5.45312 25.957C5.15104 26.6556 5 27.4014 5 28.1943V57.1943C5 57.9873 5.15104 58.7425 5.45312 59.46C5.75521 60.1585 6.17057 60.7721 6.69922 61.3008C7.22786 61.8294 7.84147 62.2448 8.54004 62.5469C9.25749 62.849 10.0127 63 10.8057 63H32.8389C33.6318 63 34.3776 62.849 35.0762 62.5469C35.7936 62.2448 36.4167 61.8294 36.9453 61.3008C37.474 60.7721 37.8893 60.1585 38.1914 59.46C38.4935 58.7425 38.6445 57.9873 38.6445 57.1943V51.9834H32.8389V57.1943H10.8057V28.1943H32.8389V33.4336H38.6445V28.1943C38.6445 27.4014 38.4935 26.6556 38.1914 25.957C37.8893 25.2396 37.474 24.626 36.9453 24.1162C36.4167 23.5876 35.7936 23.1722 35.0762 22.8701C34.3776 22.5492 33.6318 22.3887 32.8389 22.3887H10.8057C10.0127 22.3887 9.25749 22.5492 8.54004 22.8701C7.84147 23.1722 7.22786 23.5876 6.69922 24.1162C6.17057 24.626 5.75521 25.2396 5.45312 25.957ZM53.9249 57.1943V22.3887H48.1192V63H74.7969V57.1943H53.9249ZM115.594 63L99.9327 22.3887H94.1271L78.4659 63H84.2716L87.8683 53.6543H106.192L109.788 63H115.594ZM103.954 47.8486H90.0773L97.0441 29.9502L103.954 47.8486ZM128.552 63V22.3887H122.746V63H128.552ZM144.993 33.2354L160.145 63H161.872L177.024 33.2354V63H182.801V22.3887H176.486L160.994 52.9746L145.531 22.3887H139.188V63H144.993V33.2354Z" fill="black"/>
<path d="M223.786 26.121L223.072 25.421L221.406 27.121H223.786V26.121ZM247.431 2L248.356 1.62088L247.78 0.215062L246.717 1.29998L247.431 2ZM241.698 26.121L242.641 25.7886L242.406 25.121H241.698V26.121ZM246.489 39.7113L245.545 40.0437L246.079 41.5575L247.203 40.4113L246.489 39.7113ZM258.05 27.9181L258.764 28.6181L259.225 28.1481L258.975 27.539L258.05 27.9181ZM202.789 30.7943V29.7943H201.376L201.846 31.1267L202.789 30.7943ZM212.099 57.208L211.156 57.5405L211.391 58.208H212.099V57.208ZM238.415 30.7943L239.358 30.4619L239.123 29.7943H238.415V30.7943ZM242.861 43.4079L243.575 44.108L244.012 43.6631L243.805 43.0754L242.861 43.4079ZM229.33 57.208V58.208H229.75L230.044 57.9082L229.33 57.208ZM248.211 44.6043L247.497 43.9041L247.061 44.349L247.268 44.9368L248.211 44.6043ZM261.755 30.7943V29.7943H261.335L261.041 30.0941L261.755 30.7943ZM252.655 57.208L251.712 57.5406L251.947 58.208H252.655V57.208ZM288.296 57.208V58.208H289.709L289.239 56.8756L288.296 57.208ZM278.986 30.7943L279.929 30.4619L279.694 29.7943H278.986V30.7943ZM243.654 86L242.729 86.3791L243.304 87.7848L244.368 86.7001L243.654 86ZM233.035 60.0819L232.321 59.3818L231.86 59.8519L232.11 60.461L233.035 60.0819ZM267.304 61.879L268.018 62.5791L269.685 60.879H267.304V61.879ZM249.372 61.879L248.429 62.2114L248.664 62.879H249.372V61.879ZM244.587 48.301L245.53 47.9686L244.996 46.4549L243.873 47.6009L244.587 48.301ZM5.45312 25.957L6.37102 26.354L6.37476 26.3451L5.45312 25.957ZM5.45312 59.46L4.53145 59.848L4.53527 59.8569L5.45312 59.46ZM6.69922 61.3008L7.40632 60.5937L7.40632 60.5937L6.69922 61.3008ZM8.54004 62.5469L8.14311 63.4648L8.15198 63.4685L8.54004 62.5469ZM35.0762 62.5469L34.6881 61.6252L34.6793 61.629L35.0762 62.5469ZM36.9453 61.3008L37.6524 62.0079L37.6524 62.0079L36.9453 61.3008ZM38.1914 59.46L39.1093 59.8569L39.113 59.848L38.1914 59.46ZM38.6445 51.9834H39.6445V50.9834H38.6445V51.9834ZM32.8389 51.9834V50.9834H31.8389V51.9834H32.8389ZM32.8389 57.1943V58.1943H33.8389V57.1943H32.8389ZM10.8057 57.1943H9.80566V58.1943H10.8057V57.1943ZM10.8057 28.1943V27.1943H9.80566V28.1943H10.8057ZM32.8389 28.1943H33.8389V27.1943H32.8389V28.1943ZM32.8389 33.4336H31.8389V34.4336H32.8389V33.4336ZM38.6445 33.4336V34.4336H39.6445V33.4336H38.6445ZM38.1914 25.957L37.2697 26.3451L37.2735 26.3539L38.1914 25.957ZM36.9453 24.1162L36.2382 24.8233L36.2446 24.8297L36.2512 24.8361L36.9453 24.1162ZM35.0762 22.8701L34.6587 23.7788L34.6733 23.7855L34.6881 23.7918L35.0762 22.8701ZM8.54004 22.8701L8.93698 23.788L8.9484 23.7829L8.54004 22.8701ZM6.69922 24.1162L7.39335 24.8361L7.3999 24.8297L7.40633 24.8233L6.69922 24.1162ZM53.9249 22.3887H54.9249V21.3887H53.9249V22.3887ZM53.9249 57.1943H52.9249V58.1943H53.9249V57.1943ZM48.1192 22.3887V21.3887H47.1192V22.3887H48.1192ZM48.1192 63H47.1192V64H48.1192V63ZM74.7969 63V64H75.7969V63H74.7969ZM74.7969 57.1943H75.7969V56.1943H74.7969V57.1943ZM99.9327 22.3887L100.866 22.0289L100.619 21.3887H99.9327V22.3887ZM115.594 63V64H117.051L116.527 62.6402L115.594 63ZM94.1271 22.3887V21.3887H93.4409L93.194 22.0289L94.1271 22.3887ZM78.4659 63L77.5329 62.6402L77.0085 64H78.4659V63ZM84.2716 63V64H84.9582L85.2049 63.3592L84.2716 63ZM87.8683 53.6543V52.6543H87.1816L86.935 53.2951L87.8683 53.6543ZM106.192 53.6543L107.125 53.2951L106.878 52.6543H106.192V53.6543ZM109.788 63L108.855 63.3592L109.102 64H109.788V63ZM90.0773 47.8486L89.1454 47.4859L88.6149 48.8486H90.0773V47.8486ZM103.954 47.8486V48.8486H105.412L104.887 47.4885L103.954 47.8486ZM97.0441 29.9502L97.9769 29.59L97.0479 27.1836L96.1122 29.5875L97.0441 29.9502ZM128.552 22.3887H129.552V21.3887H128.552V22.3887ZM128.552 63V64H129.552V63H128.552ZM122.746 22.3887V21.3887H121.746V22.3887H122.746ZM122.746 63H121.746V64H122.746V63ZM160.145 63L159.254 63.4536L159.532 64H160.145V63ZM144.993 33.2354L145.885 32.7817L143.993 33.2354H144.993ZM161.872 63V64H162.485L162.763 63.4536L161.872 63ZM177.024 33.2354H178.024L176.132 32.7817L177.024 33.2354ZM177.024 63H176.024V64H177.024V63ZM182.801 63V64H183.801V63H182.801ZM182.801 22.3887H183.801V21.3887H182.801V22.3887ZM176.486 22.3887V21.3887H175.871L175.593 21.9368L176.486 22.3887ZM160.994 52.9746L160.102 53.4258L160.994 55.1894L161.886 53.4264L160.994 52.9746ZM145.531 22.3887L146.424 21.9375L146.146 21.3887H145.531V22.3887ZM139.188 22.3887V21.3887H138.188V22.3887H139.188ZM139.188 63H138.188V64H139.188V63ZM144.993 63V64H145.993V63H144.993ZM224.5 26.8211L248.145 2.70002L246.717 1.29998L223.072 25.421L224.5 26.8211ZM241.698 25.121H223.786V27.121H241.698V25.121ZM247.432 39.3788L242.641 25.7886L240.755 26.4535L245.545 40.0437L247.432 39.3788ZM257.336 27.218L245.774 39.0112L247.203 40.4113L258.764 28.6181L257.336 27.218ZM246.506 2.37912L257.124 28.2972L258.975 27.539L248.356 1.62088L246.506 2.37912ZM201.846 31.1267L211.156 57.5405L213.042 56.8756L203.732 30.4619L201.846 31.1267ZM238.415 29.7943H202.789V31.7943H238.415V29.7943ZM243.805 43.0754L239.358 30.4619L237.472 31.1267L241.918 43.7403L243.805 43.0754ZM230.044 57.9082L243.575 44.108L242.147 42.7077L228.616 56.5079L230.044 57.9082ZM212.099 58.208H229.33V56.208H212.099V58.208ZM248.925 45.3045L262.469 31.4945L261.041 30.0941L247.497 43.9041L248.925 45.3045ZM253.598 56.8755L249.154 44.2717L247.268 44.9368L251.712 57.5406L253.598 56.8755ZM288.296 56.208H252.655V58.208H288.296V56.208ZM278.043 31.1267L287.353 57.5405L289.239 56.8756L279.929 30.4619L278.043 31.1267ZM261.755 31.7943H278.986V29.7943H261.755V31.7943ZM244.579 85.6209L233.961 59.7028L232.11 60.461L242.729 86.3791L244.579 85.6209ZM266.59 61.1789L242.94 85.2999L244.368 86.7001L268.018 62.5791L266.59 61.1789ZM249.372 62.879H267.304V60.879H249.372V62.879ZM243.643 48.6334L248.429 62.2114L250.315 61.5466L245.53 47.9686L243.643 48.6334ZM233.749 60.782L245.301 49.0011L243.873 47.6009L232.321 59.3818L233.749 60.782ZM6 28.1943C6 27.5321 6.12536 26.9219 6.37098 26.3539L4.53527 25.5601C4.17673 26.3892 4 27.2707 4 28.1943H6ZM6 57.1943V28.1943H4V57.1943H6ZM6.37476 59.0719C6.12538 58.4796 6 57.8566 6 57.1943H4C4 58.118 4.17671 59.0054 4.53149 59.848L6.37476 59.0719ZM7.40632 60.5937C6.96849 60.1558 6.62393 59.648 6.37098 59.063L4.53527 59.8569C4.88649 60.6691 5.37265 61.3884 5.99211 62.0079L7.40632 60.5937ZM8.93695 61.629C8.35202 61.3761 7.84416 61.0315 7.40632 60.5937L5.99211 62.0079C6.61157 62.6273 7.33093 63.1135 8.14313 63.4647L8.93695 61.629ZM10.8057 62C10.1434 62 9.52038 61.8746 8.92809 61.6252L8.15198 63.4685C8.99459 63.8233 9.88196 64 10.8057 64V62ZM32.8389 62H10.8057V64H32.8389V62ZM34.6793 61.629C34.1113 61.8746 33.5012 62 32.8389 62V64C33.7625 64 34.644 63.8233 35.4731 63.4647L34.6793 61.629ZM36.2382 60.5937C35.8048 61.0271 35.2913 61.3713 34.6881 61.6252L35.4642 63.4685C36.2959 63.1183 37.0285 62.6318 37.6524 62.0079L36.2382 60.5937ZM37.2735 59.0631C37.0206 59.648 36.676 60.1558 36.2382 60.5937L37.6524 62.0079C38.2719 61.3884 38.758 60.6691 39.1093 59.8569L37.2735 59.0631ZM37.6445 57.1943C37.6445 57.8566 37.5192 58.4796 37.2698 59.0719L39.113 59.848C39.4678 59.0054 39.6445 58.118 39.6445 57.1943H37.6445ZM37.6445 51.9834V57.1943H39.6445V51.9834H37.6445ZM32.8389 52.9834H38.6445V50.9834H32.8389V52.9834ZM33.8389 57.1943V51.9834H31.8389V57.1943H33.8389ZM10.8057 58.1943H32.8389V56.1943H10.8057V58.1943ZM9.80566 28.1943V57.1943H11.8057V28.1943H9.80566ZM32.8389 27.1943H10.8057V29.1943H32.8389V27.1943ZM33.8389 33.4336V28.1943H31.8389V33.4336H33.8389ZM38.6445 32.4336H32.8389V34.4336H38.6445V32.4336ZM37.6445 28.1943V33.4336H39.6445V28.1943H37.6445ZM37.2735 26.3539C37.5192 26.9219 37.6445 27.5321 37.6445 28.1943H39.6445C39.6445 27.2707 39.4678 26.3892 39.1093 25.5601L37.2735 26.3539ZM36.2512 24.8361C36.6765 25.2462 37.0171 25.7449 37.2698 26.3451L39.113 25.569C38.7616 24.7343 38.2714 24.0057 37.6394 23.3964L36.2512 24.8361ZM34.6881 23.7918C35.2913 24.0457 35.8048 24.3899 36.2382 24.8233L37.6524 23.4091C37.0285 22.7852 36.2959 22.2987 35.4642 21.9485L34.6881 23.7918ZM32.8389 23.3887C33.4924 23.3887 34.0952 23.5199 34.6587 23.7788L35.4937 21.9614C34.66 21.5784 33.7713 21.3887 32.8389 21.3887V23.3887ZM10.8057 23.3887H32.8389V21.3887H10.8057V23.3887ZM8.9484 23.7829C9.53621 23.52 10.1521 23.3887 10.8057 23.3887V21.3887C9.87325 21.3887 8.97877 21.5783 8.13167 21.9573L8.9484 23.7829ZM7.40633 24.8233C7.84416 24.3855 8.35201 24.0409 8.93695 23.788L8.14313 21.9523C7.33093 22.3035 6.61157 22.7896 5.99211 23.4091L7.40633 24.8233ZM6.37476 26.3451C6.62747 25.7449 6.96801 25.2462 7.39335 24.8361L6.00508 23.3964C5.37314 24.0057 4.88294 24.7343 4.53149 25.569L6.37476 26.3451ZM52.9249 22.3887V57.1943H54.9249V22.3887H52.9249ZM48.1192 23.3887H53.9249V21.3887H48.1192V23.3887ZM49.1192 63V22.3887H47.1192V63H49.1192ZM74.7969 62H48.1192V64H74.7969V62ZM73.7969 57.1943V63H75.7969V57.1943H73.7969ZM53.9249 58.1943H74.7969V56.1943H53.9249V58.1943ZM98.9997 22.7485L114.661 63.3598L116.527 62.6402L100.866 22.0289L98.9997 22.7485ZM94.1271 23.3887H99.9327V21.3887H94.1271V23.3887ZM79.399 63.3598L95.0601 22.7485L93.194 22.0289L77.5329 62.6402L79.399 63.3598ZM84.2716 62H78.4659V64H84.2716V62ZM86.935 53.2951L83.3383 62.6408L85.2049 63.3592L88.8015 54.0135L86.935 53.2951ZM106.192 52.6543H87.8683V54.6543H106.192V52.6543ZM110.721 62.6408L107.125 53.2951L105.258 54.0135L108.855 63.3592L110.721 62.6408ZM115.594 62H109.788V64H115.594V62ZM90.0773 48.8486H103.954V46.8486H90.0773V48.8486ZM96.1122 29.5875L89.1454 47.4859L91.0091 48.2114L97.9759 30.3129L96.1122 29.5875ZM104.887 47.4885L97.9769 29.59L96.1112 30.3104L103.021 48.2088L104.887 47.4885ZM127.552 22.3887V63H129.552V22.3887H127.552ZM122.746 23.3887H128.552V21.3887H122.746V23.3887ZM123.746 63V22.3887H121.746V63H123.746ZM128.552 62H122.746V64H128.552V62ZM161.036 62.5464L145.885 32.7817L144.102 33.689L159.254 63.4536L161.036 62.5464ZM161.872 62H160.145V64H161.872V62ZM176.132 32.7817L160.981 62.5464L162.763 63.4536L177.915 33.689L176.132 32.7817ZM178.024 63V33.2354H176.024V63H178.024ZM182.801 62H177.024V64H182.801V62ZM181.801 22.3887V63H183.801V22.3887H181.801ZM176.486 23.3887H182.801V21.3887H176.486V23.3887ZM161.886 53.4264L177.378 22.8405L175.593 21.9368L160.102 52.5228L161.886 53.4264ZM144.639 22.8398L160.102 53.4258L161.887 52.5234L146.424 21.9375L144.639 22.8398ZM139.188 23.3887H145.531V21.3887H139.188V23.3887ZM140.188 63V22.3887H138.188V63H140.188ZM144.993 62H139.188V64H144.993V62ZM143.993 33.2354V63H145.993V33.2354H143.993Z" fill="black" mask="url(#path-1-outside-1_223_48)"/>
</g>
<defs>
<filter id="filter0_d_223_48" x="0" y="0.215088" width="293.709" height="95.5697" filterUnits="userSpaceOnUse" color-interpolation-filters="sRGB">
<feFlood flood-opacity="0" result="BackgroundImageFix"/>
<feColorMatrix in="SourceAlpha" type="matrix" values="0 0 0 0 0 0 0 0 0 0 0 0 0 0 0 0 0 0 127 0" result="hardAlpha"/>
<feOffset dy="4"/>
<feGaussianBlur stdDeviation="2"/>
<feComposite in2="hardAlpha" operator="out"/>
<feColorMatrix type="matrix" values="0 0 0 0 0 0 0 0 0 0 0 0 0 0 0 0 0 0 0.25 0"/>
<feBlend mode="normal" in2="BackgroundImageFix" result="effect1_dropShadow_223_48"/>
<feBlend mode="normal" in="SourceGraphic" in2="effect1_dropShadow_223_48" result="shape"/>
</filter>
</defs>
</svg>
